# xmcd
#
# Track frame offsets: 
#        150
#        9504
#        19845
#        30229
#        40949
#        54220
#        63039
#        73206
#        84027
#        95235
#        108317
#        119405
#        133221
#        144544
#        153387
#        162146
#        171882
#        181554
#        189702
#        198528
#
# Disc length: 2799 seconds
#
# Revision: 0
# Processed by: cddbd v1.5.2PL0 Copyright (c) Steve Scherf et al.
# Submitted via: ExactAudioCopy v1.0b3
#
DISCID=060aed14
DTITLE=Sonny James - CD3_Honey1958 - Singles'56-60
DYEAR=2015
DGENRE=Country
TTITLE0=Honey
TTITLE1=Over Somebody Else's Shoulder
TTITLE2=You, You, You
TTITLE3=That's How Much I Love You 
TTITLE4=Honest And Truly 
TTITLE5=Sweetheart 
TTITLE6=Deed I Do
TTITLE7=You're A Sweetheart
TTITLE8=If I Had A Talking Picture Of You 
TTITLE9=Moments To Remember
TTITLE10=I Love You So Much (It Hurts) 
TTITLE11=Goodnight Sweetheart 
TTITLE12=The Cat Came Back 
TTITLE13=You Got That Touch
TTITLE14=Let Me Be The One To Love You 
TTITLE15=Dream Big 
TTITLE16=Talk Of The School
TTITLE17=Pure Love
TTITLE18=Who's Next In Line
TTITLE19=Jenny Lou 
EXTD=
EXTT0=
EXTT1=
EXTT2=
EXTT3=
EXTT4=
EXTT5=
EXTT6=
EXTT7=
EXTT8=
EXTT9=
EXTT10=
EXTT11=
EXTT12=
EXTT13=
EXTT14=
EXTT15=
EXTT16=
EXTT17=
EXTT18=
EXTT19=
PLAYORDER=
